<mxfile host="app.diagrams.net" modified="2024-02-01T12:13:03.840Z" agent="Mozilla/5.0 (Windows NT 10.0; Win64; x64) AppleWebKit/537.36 (KHTML, like Gecko) Chrome/120.0.0.0 Safari/537.36" etag="gKhtBV97gh4ECzVGBgpE" version="22.1.21" type="device">
  <diagram name="1 oldal" id="lJfBmLQwx1s9EJp2PIZj">
    <mxGraphModel dx="1188" dy="674" grid="1" gridSize="10" guides="1" tooltips="1" connect="1" arrows="1" fold="1" page="1" pageScale="1" pageWidth="827" pageHeight="1169" math="0" shadow="0">
      <root>
        <mxCell id="0" />
        <mxCell id="1" parent="0" />
        <mxCell id="1L38nvM-ssfPp6MPhMyn-5" value="[pipeline]" style="rounded=1;whiteSpace=wrap;html=1;fillColor=#fff2cc;strokeColor=#d6b656;verticalAlign=top;" parent="1" vertex="1">
          <mxGeometry x="60" y="120" width="160" height="380" as="geometry" />
        </mxCell>
        <mxCell id="AnHMjH2dGaD10RgJrkaz-2" style="edgeStyle=orthogonalEdgeStyle;rounded=0;orthogonalLoop=1;jettySize=auto;html=1;exitX=0.5;exitY=1;exitDx=0;exitDy=0;entryX=0.5;entryY=0;entryDx=0;entryDy=0;" edge="1" parent="1" source="1L38nvM-ssfPp6MPhMyn-1" target="1L38nvM-ssfPp6MPhMyn-3">
          <mxGeometry relative="1" as="geometry" />
        </mxCell>
        <mxCell id="1L38nvM-ssfPp6MPhMyn-1" value="filter()&lt;br&gt;[operator]" style="rounded=1;whiteSpace=wrap;html=1;fillColor=#ffe6cc;strokeColor=#d79b00;" parent="1" vertex="1">
          <mxGeometry x="80" y="240" width="120" height="60" as="geometry" />
        </mxCell>
        <mxCell id="AnHMjH2dGaD10RgJrkaz-1" style="edgeStyle=orthogonalEdgeStyle;rounded=0;orthogonalLoop=1;jettySize=auto;html=1;exitX=0.5;exitY=1;exitDx=0;exitDy=0;" edge="1" parent="1" source="1L38nvM-ssfPp6MPhMyn-2" target="1L38nvM-ssfPp6MPhMyn-1">
          <mxGeometry relative="1" as="geometry" />
        </mxCell>
        <mxCell id="1L38nvM-ssfPp6MPhMyn-2" value="fromIterable()&lt;br&gt;[source]" style="rounded=1;whiteSpace=wrap;html=1;fillColor=#ffe6cc;strokeColor=#d79b00;" parent="1" vertex="1">
          <mxGeometry x="80" y="160" width="120" height="60" as="geometry" />
        </mxCell>
        <mxCell id="AnHMjH2dGaD10RgJrkaz-3" style="edgeStyle=orthogonalEdgeStyle;rounded=0;orthogonalLoop=1;jettySize=auto;html=1;exitX=0.5;exitY=1;exitDx=0;exitDy=0;entryX=0.5;entryY=0;entryDx=0;entryDy=0;" edge="1" parent="1" source="1L38nvM-ssfPp6MPhMyn-3" target="1L38nvM-ssfPp6MPhMyn-4">
          <mxGeometry relative="1" as="geometry" />
        </mxCell>
        <mxCell id="1L38nvM-ssfPp6MPhMyn-3" value="map()&lt;br&gt;[operator]" style="rounded=1;whiteSpace=wrap;html=1;fillColor=#ffe6cc;strokeColor=#d79b00;" parent="1" vertex="1">
          <mxGeometry x="80" y="320" width="120" height="60" as="geometry" />
        </mxCell>
        <mxCell id="1L38nvM-ssfPp6MPhMyn-4" value="map()&lt;br&gt;[operator]" style="rounded=1;whiteSpace=wrap;html=1;fillColor=#ffe6cc;strokeColor=#d79b00;" parent="1" vertex="1">
          <mxGeometry x="80" y="400" width="120" height="60" as="geometry" />
        </mxCell>
      </root>
    </mxGraphModel>
  </diagram>
</mxfile>
